# xmcd
# 
# Track frame offsets:
#     150
#     28265
#     51610
#     83587
# 
# Disc length: 1345
# 
# Revision: 1
# Processed by: cddbd v1.5.2PL0 Copyright (c) Steve Scherf et al.
# Submitted via: BonkEnc v1.0.8
# 
DISCID=2f053f04
DTITLE=Living Colour - Love Rears It's Ugly Head/Elvis Is Dead - CDS
DYEAR=1991
DGENRE=Funk
TTITLE0=Love Rears It's Ugly Head (Soulpower Mix)
TTITLE1=Love Rears It's Ugly Head (Hip-Hop Mix)
TTITLE2=Elvis Is Dead (Elvis Is In The House Mix)
TTITLE3=Elvis Is Dead (Zans Is Dead Dub)
EXTD=Love Rears...Mix By Soulshock.\nElvis Is...Mix By Tony Humphries.
EXTT0=
EXTT1=
EXTT2=
EXTT3=
PLAYORDER=
